{
  "accessors": [
    {
      "bufferView": 2,
      "componentType": 5126,
      "count": 869,
      "max": [
        1.0,
        0.2740403711795807,
        1.0
      ],
      "min": [
        -1.0,
        0.0,
        -1.0
      ],
      "type": "VEC3"
    },
    {
      "bufferView": 2,
      "byteOffset": 10428,
      "componentType": 5126,
      "count": 869,
      "max": [
        1.0,
        1.0,
        1.0
      ],
      "min": [
        -1.0,
        -1.0,
        -1.0
      ],
      "type": "VEC3"
    },
    {
      "bufferView": 3,
      "componentType": 5126,
      "count": 869,
      "max": [
        0.883376955986023,
        0.991570770740509,
        0.8894537687301636,
        1.0
      ],
      "min": [
        -0.999997615814209,
        -1.0,
        -0.9953292012214661,
        1.0
      ],
      "type": "VEC4"
    },
    {
      "bufferView": 1,
      "componentType": 5126,
      "count": 869,
      "max": [
        0.694087564945221,
        0.9998908638954163
      ],
      "min": [
        0.0001090915102395229,
        0.0001090915102395229
      ],
      "type": "VEC2"
    },
    {
      "bufferView": 1,
      "byteOffset": 6952,
      "componentType": 5126,
      "count": 869,
      "max": [
        0.694087564945221,
        0.9998908638954163
      ],
      "min": [
        0.0001090915102395229,
        0.0001090915102395229
      ],
      "type": "VEC2"
    },
    {
      "bufferView": 1,
      "byteOffset": 13904,
      "componentType": 5126,
      "count": 869,
      "max": [
        0.694087564945221,
        0.9998908638954163
      ],
      "min": [
        0.0001090915102395229,
        0.0001090915102395229
      ],
      "type": "VEC2"
    },
    {
      "bufferView": 1,
      "byteOffset": 20856,
      "componentType": 5126,
      "count": 869,
      "max": [
        0.694087564945221,
        0.9998908638954163
      ],
      "min": [
        0.0001090915102395229,
        0.0001090915102395229
      ],
      "type": "VEC2"
    },
    {
      "bufferView": 0,
      "componentType": 5125,
      "count": 3330,
      "type": "SCALAR"
    },
    {
      "bufferView": 2,
      "byteOffset": 20856,
      "componentType": 5126,
      "count": 624,
      "max": [
        1.0,
        0.02500000409781933,
        0.04865033179521561
      ],
      "min": [
        -1.0,
        -0.02500000409781933,
        -1.0
      ],
      "type": "VEC3"
    },
    {
      "bufferView": 2,
      "byteOffset": 28344,
      "componentType": 5126,
      "count": 624,
      "max": [
        1.0,
        1.0,
        1.0
      ],
      "min": [
        -1.0,
        -1.0,
        -1.0
      ],
      "type": "VEC3"
    },
    {
      "bufferView": 3,
      "byteOffset": 13904,
      "componentType": 5126,
      "count": 624,
      "max": [
        0.23046629130840302,
        1.0,
        0.9999959468841553,
        1.0
      ],
      "min": [
        -0.29299047589302063,
        -1.0,
        -0.7083295583724976,
        1.0
      ],
      "type": "VEC4"
    },
    {
      "bufferView": 1,
      "byteOffset": 27808,
      "componentType": 5126,
      "count": 624,
      "max": [
        0.635970413684845,
        0.9998818039894104
      ],
      "min": [
        0.00011822722444776446,
        0.00011822722444776446
      ],
      "type": "VEC2"
    },
    {
      "bufferView": 1,
      "byteOffset": 32800,
      "componentType": 5126,
      "count": 624,
      "max": [
        0.635970413684845,
        0.9998818039894104
      ],
      "min": [
        0.00011822722444776446,
        0.00011822722444776446
      ],
      "type": "VEC2"
    },
    {
      "bufferView": 1,
      "byteOffset": 37792,
      "componentType": 5126,
      "count": 624,
      "max": [
        0.635970413684845,
        0.9998818039894104
      ],
      "min": [
        0.00011822722444776446,
        0.00011822722444776446
      ],
      "type": "VEC2"
    },
    {
      "bufferView": 1,
      "byteOffset": 42784,
      "componentType": 5126,
      "count": 624,
      "max": [
        0.635970413684845,
        0.9998818039894104
      ],
      "min": [
        0.00011822722444776446,
        0.00011822722444776446
      ],
      "type": "VEC2"
    },
    {
      "bufferView": 0,
      "byteOffset": 13320,
      "componentType": 5125,
      "count": 1716,
      "type": "SCALAR"
    },
    {
      "bufferView": 2,
      "byteOffset": 35832,
      "componentType": 5126,
      "count": 561,
      "max": [
        0.3125492334365845,
        0.3183096945285797,
        0.31831035017967224
      ],
      "min": [
        -0.32407087087631226,
        -0.3183099925518036,
        -0.3183104395866394
      ],
      "type": "VEC3"
    },
    {
      "bufferView": 2,
      "byteOffset": 42564,
      "componentType": 5126,
      "count": 561,
      "max": [
        0.9951868653297424,
        1.0,
        0.9951873421669006
      ],
      "min": [
        -1.0,
        -1.0,
        -0.9951879382133484
      ],
      "type": "VEC3"
    },
    {
      "bufferView": 1,
      "byteOffset": 47776,
      "componentType": 5126,
      "count": 561,
      "max": [
        1.0,
        1.0
      ],
      "min": [
        0.0,
        0.0
      ],
      "type": "VEC2"
    },
    {
      "bufferView": 0,
      "byteOffset": 20184,
      "componentType": 5125,
      "count": 3072,
      "type": "SCALAR"
    },
    {
      "bufferView": 2,
      "byteOffset": 49296,
      "componentType": 5126,
      "count": 66,
      "max": [
        1.0,
        1.0,
        1.0
      ],
      "min": [
        -1.0,
        -1.0,
        -1.0
      ],
      "type": "VEC3"
    },
    {
      "bufferView": 2,
      "byteOffset": 50088,
      "componentType": 5126,
      "count": 66,
      "max": [
        0.7462007999420166,
        0.6657224893569946,
        0.7462007999420166
      ],
      "min": [
        -0.7462007999420166,
        -0.6657224893569946,
        -0.7462007999420166
      ],
      "type": "VEC3"
    },
    {
      "bufferView": 3,
      "byteOffset": 23888,
      "componentType": 5126,
      "count": 66,
      "max": [
        0.6657209992408752,
        0.7149738073348999,
        0.9913461804389954,
        1.0
      ],
      "min": [
        -0.9136844873428345,
        -0.7462053894996643,
        -0.6657209992408752,
        1.0
      ],
      "type": "VEC4"
    },
    {
      "bufferView": 1,
      "byteOffset": 52264,
      "componentType": 5126,
      "count": 66,
      "max": [
        0.6347799301147461,
        0.9998805522918701
      ],
      "min": [
        0.00011941396223846823,
        0.00011941396223846823
      ],
      "type": "VEC2"
    },
    {
      "bufferView": 1,
      "byteOffset": 52792,
      "componentType": 5126,
      "count": 66,
      "max": [
        0.6347799301147461,
        0.9998805522918701
      ],
      "min": [
        0.00011941396223846823,
        0.00011941396223846823
      ],
      "type": "VEC2"
    },
    {
      "bufferView": 1,
      "byteOffset": 53320,
      "componentType": 5126,
      "count": 66,
      "max": [
        0.6347799301147461,
        0.9998805522918701
      ],
      "min": [
        0.00011941396223846823,
        0.00011941396223846823
      ],
      "type": "VEC2"
    },
    {
      "bufferView": 1,
      "byteOffset": 53848,
      "componentType": 5126,
      "count": 66,
      "max": [
        0.6347799301147461,
        0.9998805522918701
      ],
      "min": [
        0.00011941396223846823,
        0.00011941396223846823
      ],
      "type": "VEC2"
    },
    {
      "bufferView": 0,
      "byteOffset": 32472,
      "componentType": 5125,
      "count": 180,
      "type": "SCALAR"
    }
  ],
  "asset": {
    "extras": {
      "author": "Rosbergen Designs (https://sketchfab.com/RosbergenDesigns)",
      "license": "CC-BY-4.0 (http://creativecommons.org/licenses/by/4.0/)",
      "source": "https://sketchfab.com/3d-models/prop-globe-acbc64addc98410582d1f631dd9b6d5f",
      "title": "Prop Globe"
    },
    "generator": "Sketchfab-13.4.0",
    "version": "2.0"
  },
  "bufferViews": [
    {
      "buffer": 0,
      "byteLength": 33192,
      "name": "floatBufferViews",
      "target": 34963
    },
    {
      "buffer": 0,
      "byteLength": 54376,
      "byteOffset": 33192,
      "byteStride": 8,
      "name": "floatBufferViews",
      "target": 34962
    },
    {
      "buffer": 0,
      "byteLength": 50880,
      "byteOffset": 87568,
      "byteStride": 12,
      "name": "floatBufferViews",
      "target": 34962
    },
    {
      "buffer": 0,
      "byteLength": 24944,
      "byteOffset": 138448,
      "byteStride": 16,
      "name": "floatBufferViews",
      "target": 34962
    }
  ],
  "buffers": [
    {
      "byteLength": 163392,
      "uri": "scene.bin"
    }
  ],
  "images": [
    {
      "uri": "textures/Wood_Stand_baseColor.png"
    },
    {
      "uri": "textures/Wood_Stand_metallicRoughness.png"
    },
    {
      "uri": "textures/Wood_Stand_normal.png"
    },
    {
      "uri": "textures/Wood_Half_Moon_baseColor.png"
    },
    {
      "uri": "textures/Wood_Half_Moon_metallicRoughness.png"
    },
    {
      "uri": "textures/Wood_Half_Moon_normal.png"
    },
    {
      "uri": "textures/material_baseColor.png"
    },
    {
      "uri": "textures/Steel_Axes_baseColor.png"
    },
    {
      "uri": "textures/Steel_Axes_metallicRoughness.png"
    },
    {
      "uri": "textures/Steel_Axes_normal.png"
    }
  ],
  "materials": [
    {
      "doubleSided": true,
      "name": "Wood_Stand",
      "normalTexture": {
        "index": 2
      },
      "pbrMetallicRoughness": {
        "baseColorTexture": {
          "index": 0
        },
        "metallicFactor": 0.0,
        "metallicRoughnessTexture": {
          "index": 1
        }
      }
    },
    {
      "doubleSided": true,
      "name": "Wood_Half_Moon",
      "normalTexture": {
        "index": 5
      },
      "pbrMetallicRoughness": {
        "baseColorTexture": {
          "index": 3
        },
        "metallicFactor": 0.0,
        "metallicRoughnessTexture": {
          "index": 4
        }
      }
    },
    {
      "doubleSided": true,
      "name": "material",
      "pbrMetallicRoughness": {
        "baseColorTexture": {
          "index": 6
        },
        "metallicFactor": 0.0,
        "roughnessFactor": 0.5
      }
    },
    {
      "doubleSided": true,
      "name": "Steel_Axes",
      "normalTexture": {
        "index": 9
      },
      "pbrMetallicRoughness": {
        "baseColorTexture": {
          "index": 7
        },
        "metallicFactor": 0.0,
        "metallicRoughnessTexture": {
          "index": 8
        }
      }
    }
  ],
  "meshes": [
    {
      "name": "Object_0",
      "primitives": [
        {
          "attributes": {
            "NORMAL": 1,
            "POSITION": 0,
            "TANGENT": 2,
            "TEXCOORD_0": 3,
            "TEXCOORD_1": 4,
            "TEXCOORD_2": 5,
            "TEXCOORD_3": 6
          },
          "indices": 7,
          "material": 0,
          "mode": 4
        }
      ]
    },
    {
      "name": "Object_1",
      "primitives": [
        {
          "attributes": {
            "NORMAL": 9,
            "POSITION": 8,
            "TANGENT": 10,
            "TEXCOORD_0": 11,
            "TEXCOORD_1": 12,
            "TEXCOORD_2": 13,
            "TEXCOORD_3": 14
          },
          "indices": 15,
          "material": 1,
          "mode": 4
        }
      ]
    },
    {
      "name": "Object_2",
      "primitives": [
        {
          "attributes": {
            "NORMAL": 17,
            "POSITION": 16,
            "TEXCOORD_0": 18
          },
          "indices": 19,
          "material": 2,
          "mode": 4
        }
      ]
    },
    {
      "name": "Object_3",
      "primitives": [
        {
          "attributes": {
            "NORMAL": 21,
            "POSITION": 20,
            "TANGENT": 22,
            "TEXCOORD_0": 23,
            "TEXCOORD_1": 24,
            "TEXCOORD_2": 25,
            "TEXCOORD_3": 26
          },
          "indices": 27,
          "material": 3,
          "mode": 4
        }
      ]
    }
  ],
  "nodes": [
    {
      "children": [
        1
      ],
      "matrix": [
        1.0,
        0.0,
        0.0,
        0.0,
        0.0,
        2.220446049250313e-16,
        -1.0,
        0.0,
        0.0,
        1.0,
        2.220446049250313e-16,
        0.0,
        0.0,
        0.0,
        0.0,
        1.0
      ],
      "name": "Sketchfab_model"
    },
    {
      "children": [
        2
      ],
      "name": "root"
    },
    {
      "children": [
        3
      ],
      "matrix": [
        1.0,
        0.0,
        0.0,
        0.0,
        0.0,
        2.220446049250313e-16,
        1.0,
        0.0,
        0.0,
        -1.0,
        2.220446049250313e-16,
        0.0,
        0.0,
        0.0,
        0.0,
        1.0
      ],
      "name": "GLTF_SceneRootNode"
    },
    {
      "children": [
        4,
        5,
        7,
        9
      ],
      "matrix": [
        0.5095176696777344,
        0.0,
        0.0,
        0.0,
        0.0,
        0.5095176696777344,
        0.0,
        0.0,
        0.0,
        0.0,
        0.5095176696777344,
        0.0,
        0.0,
        0.0026029348373413086,
        0.0,
        1.0
      ],
      "name": "Stand_3"
    },
    {
      "mesh": 0,
      "name": "Object_4"
    },
    {
      "children": [
        6
      ],
      "matrix": [
        0.0,
        -1.3981818980009866,
        0.5088965568746894,
        0.0,
        1.4879140853881836,
        0.0,
        4.1297911906551066e-17,
        0.0,
        4.1297911906551066e-17,
        0.5088965568746894,
        1.3981818980009864,
        0.0,
        0.0,
        1.7539424896240234,
        0.0,
        1.0
      ],
      "name": "Half_Moon_0"
    },
    {
      "mesh": 1,
      "name": "Object_6"
    },
    {
      "children": [
        8
      ],
      "matrix": [
        -5.469877939698998e-07,
        -1.354689127485054,
        -3.721978713071721,
        0.0,
        3.960846900939885,
        -5.469877939698998e-07,
        -3.8300500881702414e-07,
        0.0,
        -3.8300500881702414e-07,
        -3.721978713071721,
        1.3546891274851105,
        0.0,
        0.0017286502989009023,
        1.753942608833313,
        0.0,
        1.0
      ],
      "name": "Map_1"
    },
    {
      "mesh": 2,
      "name": "Object_8"
    },
    {
      "children": [
        10
      ],
      "matrix": [
        0.02291848510503769,
        0.0,
        -0.0,
        0.0,
        -0.0,
        1.3832512117236246,
        -0.5034621586813867,
        0.0,
        0.0,
        0.00783858206328367,
        0.021536331877713113,
        0.0,
        0.0,
        1.7539424896240234,
        0.0,
        1.0
      ],
      "name": "Rotation_Axes_2"
    },
    {
      "mesh": 3,
      "name": "Object_10"
    }
  ],
  "samplers": [
    {
      "magFilter": 9729,
      "minFilter": 9987,
      "wrapS": 10497,
      "wrapT": 10497
    },
    {
      "magFilter": 9729,
      "minFilter": 9987,
      "wrapS": 33071,
      "wrapT": 33071
    }
  ],
  "scene": 0,
  "scenes": [
    {
      "name": "Sketchfab_Scene",
      "nodes": [
        0
      ]
    }
  ],
  "textures": [
    {
      "sampler": 0,
      "source": 0
    },
    {
      "sampler": 0,
      "source": 1
    },
    {
      "sampler": 0,
      "source": 2
    },
    {
      "sampler": 0,
      "source": 3
    },
    {
      "sampler": 0,
      "source": 4
    },
    {
      "sampler": 0,
      "source": 5
    },
    {
      "sampler": 1,
      "source": 6
    },
    {
      "sampler": 0,
      "source": 7
    },
    {
      "sampler": 0,
      "source": 8
    },
    {
      "sampler": 0,
      "source": 9
    }
  ]
}
